<?xml version="1.0" encoding="utf-8"?>
<!-- Generator: Adobe Illustrator 18.0.0, SVG Export Plug-In . SVG Version: 6.00 Build 0)  -->
<!DOCTYPE svg PUBLIC "-//W3C//DTD SVG 1.1//EN" "http://www.w3.org/Graphics/SVG/1.1/DTD/svg11.dtd">
<svg version="1.1" id="Layer_1" xmlns="http://www.w3.org/2000/svg" xmlns:xlink="http://www.w3.org/1999/xlink" x="0px" y="0px"
	 viewBox="0 0 24 24" enable-background="new 0 0 24 24" xml:space="preserve" width="24" height="24">
<path d="M0,0v24h24V0H0z M22.2,22.2H1.7V1.7h20.5V22.2z"/>
<polyline points="6.6,2.3 10.7,6.5 9.4,7.8 6.6,5 3.8,7.9 2.5,6.5 6.6,2.3 6.6,2.3 "/>
<polyline points="6.6,5.6 10.7,9.8 9.4,11.1 6.6,8.3 3.8,11.2 2.5,9.8 6.6,5.6 6.6,5.6 "/>
<polyline points="17.6,21.7 13.5,17.5 14.8,16.2 17.6,19 20.4,16.1 21.7,17.5 17.6,21.7 17.6,21.7 "/>
<polyline points="17.6,18.4 13.5,14.2 14.8,12.9 17.6,15.7 20.4,12.8 21.7,14.2 17.6,18.4 17.6,18.4 "/>
</svg>
