<?xml version="1.0" encoding="utf-8"?>
<!-- Generator: Adobe Illustrator 18.1.0, SVG Export Plug-In . SVG Version: 6.00 Build 0)  -->
<!DOCTYPE svg PUBLIC "-//W3C//DTD SVG 1.1//EN" "http://www.w3.org/Graphics/SVG/1.1/DTD/svg11.dtd">
<svg version="1.1"
	 id="Layer_1" xmlns:dc="http://purl.org/dc/elements/1.1/" xmlns:cc="http://creativecommons.org/ns#" xmlns:rdf="http://www.w3.org/1999/02/22-rdf-syntax-ns#" xmlns:svg="http://www.w3.org/2000/svg" xmlns:sodipodi="http://sodipodi.sourceforge.net/DTD/sodipodi-0.dtd" xmlns:inkscape="http://www.inkscape.org/namespaces/inkscape" sodipodi:docname="blind-alt.svg" inkscape:version="0.48.4 r"
	 xmlns="http://www.w3.org/2000/svg" xmlns:xlink="http://www.w3.org/1999/xlink" x="0px" y="0px" viewBox="-612 373.1 54.9 54.9"
	 enable-background="new -612 373.1 54.9 54.9" xml:space="preserve">
<sodipodi:namedview  fit-margin-left="0" fit-margin-top="0" inkscape:cy="24.223936" inkscape:cx="63.138689" inkscape:zoom="7.375" showgrid="false" guidetolerance="10" gridtolerance="10" objecttolerance="10" bordercolor="#666666" pagecolor="#ffffff" borderopacity="1" id="namedview3027" fit-margin-bottom="0" fit-margin-right="0" inkscape:current-layer="Layer_1" inkscape:window-maximized="1" inkscape:window-y="-4" inkscape:window-x="-4" inkscape:window-height="1137" inkscape:pageshadow="2" inkscape:window-width="1920" inkscape:pageopacity="0">
	</sodipodi:namedview>
<path id="path3033" inkscape:connector-curvature="0" fill="#010101" d="M-590,373.1c-14.4,0-22,10.6-22,12.3
	c0,1.7,7.6,12.3,22,12.3c14.4,0,22-10.6,22-12.3C-568,383.7-575.6,373.1-590,373.1z M-590,394.9c-5.4,0-9.8-4.2-9.8-9.5
	s4.4-9.5,9.8-9.5s9.8,4.2,9.8,9.5S-584.6,394.9-590,394.9z M-585.1,385.4c0,2.6-2.2,4.7-4.9,4.7c-2.7,0-4.9-2.1-4.9-4.7
	s2.2-4.7,4.9-4.7c1.5,0-0.9,3.8,0,4.7C-589.2,386.2-585.1,384.2-585.1,385.4z"/>
</svg>
