<?xml version="1.0" encoding="UTF-8" standalone="no"?>
<!-- Generator: Adobe Illustrator 18.0.0, SVG Export Plug-In . SVG Version: 6.00 Build 0)  -->

<svg
   xmlns:dc="http://purl.org/dc/elements/1.1/"
   xmlns:cc="http://creativecommons.org/ns#"
   xmlns:rdf="http://www.w3.org/1999/02/22-rdf-syntax-ns#"
   xmlns:svg="http://www.w3.org/2000/svg"
   xmlns="http://www.w3.org/2000/svg"
   xmlns:sodipodi="http://sodipodi.sourceforge.net/DTD/sodipodi-0.dtd"
   xmlns:inkscape="http://www.inkscape.org/namespaces/inkscape"
   version="1.1"
   id="Layer_1"
   sodipodi:docname="def-up.svg"
   inkscape:version="0.48.4 r"
   x="0px"
   y="0px"
   viewBox="0 0 46.101133 51.399998"
   enable-background="new 0 0 50.6 54.1"
   xml:space="preserve"
   width="100%"
   height="100%"><metadata
     id="metadata3110"><rdf:RDF><cc:Work
         rdf:about=""><dc:format>image/svg+xml</dc:format><dc:type
           rdf:resource="http://purl.org/dc/dcmitype/StillImage" /></cc:Work></rdf:RDF></metadata><defs
     id="defs3108" /><sodipodi:namedview
     inkscape:cx="15.778564"
     fit-margin-top="0"
     gridtolerance="10"
     guidetolerance="10"
     fit-margin-left="0"
     inkscape:cy="37.815074"
     showgrid="false"
     inkscape:zoom="22.627417"
     bordercolor="#666666"
     objecttolerance="10"
     id="namedview3290"
     borderopacity="1"
     pagecolor="#ffffff"
     fit-margin-bottom="0"
     fit-margin-right="0"
     inkscape:current-layer="g3280"
     inkscape:window-maximized="1"
     inkscape:window-y="-4"
     inkscape:window-x="-4"
     inkscape:window-height="1137"
     inkscape:pageshadow="2"
     inkscape:pageopacity="0"
     inkscape:window-width="1920"
     inkscape:object-paths="true" /><g
     id="g3280"
     transform="translate(-4.5,-6.3000001)"><path
       id="path3284"
       inkscape:connector-curvature="0"
       d="M 26.6,44.5 H 29 L 40,36.2 V 19.7 c 0,0 -3.5,-2.8 -12.4,-2.8 -8.9,0 -12.4,2.8 -12.4,2.8 v 16.5 c 0,0.1 11.4,8.3 11.4,8.3 z" /><path
       id="path3286"
       inkscape:connector-curvature="0"
       d="M 27.6,6.3 C 11.1,6.3 4.5,11.4 4.5,11.4 l 0,31 7.7,-4.6 0,-18.1 0,-1.5 1.1,-0.9 C 13.8,17 18,14 27.6,14 c 9.6,0 13.8,3 14.2,3.4 l 1.1,0.9 0,1.5 0,16.5 0,1.5 -13,9.8 -3.7,0 -14,-9.8 -7.7,4.6 21.3,15.3 4.3,0 20.5,-15.4 0,-30.8 c 0.1,0 -6.4,-5.2 -23,-5.2 z"
       sodipodi:nodetypes="sccccccscccccccccccccs" /><path
       stroke-miterlimit="10"
       d="M 15.2,36.3"
       id="path3096"
       inkscape:connector-curvature="0"
       style="fill:none;stroke:#000000;stroke-miterlimit:10" /><path
       stroke-miterlimit="10"
       d="M 44.4,36.3"
       id="path3098"
       inkscape:connector-curvature="0"
       style="fill:none;stroke:#000000;stroke-miterlimit:10" /><path
       stroke-miterlimit="10"
       d="M 6.3,37.8"
       id="path3100"
       inkscape:connector-curvature="0"
       style="fill:none;stroke:#000000;stroke-miterlimit:10" /><path
       stroke-miterlimit="10"
       d="M 47.6,37.8"
       id="path3102"
       inkscape:connector-curvature="0"
       style="fill:none;stroke:#000000;stroke-miterlimit:10" /><path
       stroke-miterlimit="10"
       d="M 6.1,42.3"
       id="path3104"
       inkscape:connector-curvature="0"
       style="fill:none;stroke:#000000;stroke-miterlimit:10" /><path
       stroke-miterlimit="10"
       d="M 55.1,42.3"
       id="path3106"
       inkscape:connector-curvature="0"
       style="fill:none;stroke:#000000;stroke-miterlimit:10" /></g></svg>